# xmcd
#
# Track frame offsets: 
#        150
#        16985
#        36986
#        47524
#        64663
#        82019
#        94959
#        113052
#        132174
#        146951
#        160059
#        173596
#        187258
#        201120
#
# Disc length: 2897 seconds
#
# Revision: 0
# Processed by: cddbd v1.5.2PL0 Copyright (c) Steve Scherf et al.
# Submitted via: ExactAudioCopy v0.99pb3
#
DISCID=c30b4f0e
DTITLE=Cedric Burnside and Lightnin' Malcom - 2 Man Wrecking Crew
DYEAR=2008
DGENRE=Blues
TTITLE0=R.L. Burnside
TTITLE1=So Much Love
TTITLE2=My Sweetheart
TTITLE3=Nobody Else
TTITLE4=Don't Just Sing About The Blues
TTITLE5=That's My Girl
TTITLE6=She's Got Somethin' On Me
TTITLE7=Fightin'
TTITLE8=Stay Here In Your Arms
TTITLE9=She Don't Love Me No More
TTITLE10=World Full Of Trouble
TTITLE11=Mad Man Blues
TTITLE12=Tryin' Not To Pull My Gun
TTITLE13=Time To Let It Go
EXTD=
EXTT0=
EXTT1=
EXTT2=
EXTT3=
EXTT4=
EXTT5=
EXTT6=
EXTT7=
EXTT8=
EXTT9=
EXTT10=
EXTT11=
EXTT12=
EXTT13=
PLAYORDER=
